Coordinates
version=1
nRows=29
nColumns=24
inDegrees=yes

Units are S.I. units (second, meters, Newtons, ...)
Angles are in degrees.

endheader
time	pelvis_tilt	pelvis_list	pelvis_rotation	pelvis_tx	pelvis_ty	pelvis_tz	hip_flexion_r	hip_adduction_r	hip_rotation_r	knee_angle_r	ankle_angle_r	subtalar_angle_r	mtp_angle_r	hip_flexion_l	hip_adduction_l	hip_rotation_l	knee_angle_l	ankle_angle_l	subtalar_angle_l	mtp_angle_l	lumbar_extension	lumbar_bending	lumbar_rotation
      0.88550000	     -3.52223370	     -1.27478327	     -7.79344235	     -0.15144163	      0.88558128	      0.31290794	    -13.71437213	      4.59493877	      4.62424640	     -9.12474718	     18.61412887	      8.07400904	      5.79958572	     32.13698938	     -5.64260143	     -9.15731569	    -14.69639942	      6.94389601	     -3.91825282	     -1.32046077	     -7.50900998	      2.01669998	     12.82317384
      0.88966667	     -3.58749161	     -1.19092406	     -8.02152631	     -0.14505029	      0.88444987	      0.31298014	    -13.78718269	      4.39005966	      4.74897534	     -9.71075459	     18.71612914	      8.19650380	      5.94206175	     32.09376196	     -5.62424950	     -9.22444977	    -14.77637850	      6.97298469	     -3.96485943	     -1.31145809	     -7.35330946	      1.84953943	     12.87500505
      0.89383333	     -3.68644182	     -1.07443966	     -8.21619608	     -0.13865046	      0.88332132	      0.31291119	    -13.74219607	      4.14146431	      4.64219423	    -10.43626098	     18.74505315	      8.67728313	      9.08660658	     32.07014501	     -5.53355910	     -9.17632701	    -14.87755921	      6.84193496	     -4.16553265	     -1.01172327	     -7.17012875	      1.66707545	     12.97957902
      0.89800000	     -3.77890908	     -0.98683909	     -8.41090146	     -0.13226541	      0.88223124	      0.31292762	    -13.71390330	      3.94615245	      4.73306293	    -11.16436724	     18.84302014	      8.81797381	      9.15465039	     32.08686546	     -5.50190502	     -9.24839081	    -15.17425698	      6.83265579	     -4.14702807	     -0.99585067	     -7.00194701	      1.49851249	     13.10437324
      0.90216667	     -3.88279800	     -0.87126619	     -8.57992875	     -0.12583981	      0.88118016	      0.31286581	    -13.62757432	      3.72053477	      4.72093650	    -11.97418764	     18.87409390	      9.09514542	      9.27336331	     32.11197416	     -5.42007302	     -9.29546291	    -15.51813924	      6.72817647	     -4.23544933	     -0.96792538	     -6.79788287	      1.31133388	     13.19792467
      0.90633333	     -3.93636252	     -0.72717154	     -8.70596148	     -0.11935332	      0.88025017	      0.31268086	    -13.56651949	      3.45086883	      4.57058903	    -12.83095224	     18.88369546	      9.51059156	      9.80873190	     32.08009975	     -5.26639335	     -9.29752022	    -15.90315159	      6.56255459	     -4.48354661	     -0.83039434	     -6.65101023	      1.09454354	     13.28602168
      0.91050000	     -4.06520148	     -0.61889240	     -8.83107473	     -0.11291419	      0.87927509	      0.31255577	    -13.40939285	      3.25756783	      4.61569197	    -13.72346942	     18.76037194	      9.58794415	      9.96697725	     32.15715287	     -5.17405461	     -9.31831213	    -16.40111940	      6.39300661	     -4.59092910	     -0.79132099	     -6.41807859	      0.92125789	     13.26268756
      0.91466667	     -4.13020780	     -0.46261482	     -8.91646797	     -0.10639920	      0.87843751	      0.31226203	    -13.26126968	      2.98061595	      4.41506099	    -14.71906471	     18.64969995	     10.02715463	     10.74686468	     32.14916599	     -4.97782041	     -9.26295395	    -16.89454894	      6.20035182	     -4.92100020	     -0.59334726	     -6.25215504	      0.69737089	     13.28790886
      0.91883333	     -4.24918298	     -0.33804983	     -8.98724379	     -0.09991027	      0.87758490	      0.31205165	    -13.06536942	      2.78559922	      4.43739979	    -15.69980620	     18.42271060	     10.00041882	     10.94121323	     32.24950275	     -4.84855336	     -9.30420314	    -17.53097349	      5.95042250	     -5.03876555	     -0.54745025	     -6.01693375	      0.49660180	     13.21372381
      0.92300000	     -4.36306697	     -0.20290375	     -9.01972466	     -0.09340487	      0.87678254	      0.31171543	    -12.81558043	      2.57192757	      4.32598788	    -16.79029858	     18.17121129	     10.17795876	     11.24430490	     32.35252584	     -4.67400971	     -9.27032752	    -18.20331048	      5.72978695	     -5.26598535	     -0.47779259	     -5.79159008	      0.29042819	     13.13668538
      0.92716667	     -4.41465581	     -0.04849932	     -9.01114254	     -0.08684347	      0.87614031	      0.31126037	    -12.60532827	      2.32261083	      4.11803530	    -17.91076030	     17.73330284	     10.29411951	     16.47433427	     32.37291174	     -4.43331622	     -9.17012757	    -18.85016927	      5.44726380	     -5.67167512	      0.73296913	     -5.63658207	      0.08285538	     13.04992075
      0.93133333	     -4.49219321	      0.09842266	     -9.00537718	     -0.08027845	      0.87552833	      0.31086185	    -12.33727715	      2.10252138	      4.00761786	    -19.09467152	     17.29741599	     10.36664026	     16.52398057	     32.45175986	     -4.23581783	     -9.18514567	    -19.59963909	      5.26127097	     -5.79400137	      0.74947491	     -5.45011636	     -0.15183286	     12.92683787
      0.93550000	     -4.57689255	      0.24807665	     -8.96026185	     -0.07373571	      0.87494624	      0.31035731	    -12.00239437	      1.88151929	      3.82374374	    -20.38741394	     16.84983310	     10.48473308	     16.64437329	     32.54976590	     -4.00579707	     -9.11961530	    -20.36912377	      5.07312918	     -6.02610155	      0.77508693	     -5.25777761	     -0.37051226	     12.77452738
      0.93966667	     -4.64055396	      0.40075973	     -8.88614175	     -0.06721070	      0.87444446	      0.30975303	    -11.63220847	      1.64994707	      3.57086609	    -21.78429133	     16.40551717	     10.65189745	     16.94250890	     32.62822567	     -3.74415435	     -8.99850643	    -21.14249859	      4.85786819	     -6.35596037	      0.82433541	     -5.10660537	     -0.55815351	     12.57343745
      0.94383333	     -4.66650496	      0.57975918	     -8.78969696	     -0.06061640	      0.87409578	      0.30912640	    -11.28526412	      1.38792781	      3.31600416	    -23.17581152	     15.68486230	     10.66002337	     20.96527970	     32.64443125	     -3.43841399	     -8.87664274	    -21.88380482	      4.70326977	     -6.67891392	      1.41568308	     -4.98045004	     -0.83137144	     12.40767362
      0.94800000	     -4.70953964	      0.73375344	     -8.68387074	     -0.05407308	      0.87376265	      0.30848368	    -10.86237402	      1.16054933	      3.07414611	    -24.68060555	     15.00022420	     10.71510755	     21.04136827	     32.70524642	     -3.17459051	     -8.80348505	    -22.69250666	      4.61461839	     -6.83021017	      1.42870280	     -4.84924419	     -1.04857549	     12.18324967
      0.95216667	     -4.73489172	      0.90802630	     -8.55468184	     -0.04753083	      0.87351600	      0.30777822	    -10.40735999	      0.90519139	      2.79218582	    -26.26179488	     14.25168751	     10.75370162	     21.19400867	     32.73123901	     -2.86595997	     -8.68524368	    -23.46500956	      4.55371233	     -7.04349747	      1.44270871	     -4.73792473	     -1.29475499	     11.94555762
      0.95633333	     -4.69137372	      1.12954905	     -8.37757081	     -0.04093939	      0.87344289	      0.30694204	     -9.98824900	      0.57296215	      2.39500350	    -27.88679431	     13.40351433	     10.85745504	     22.28718887	     32.64508468	     -2.44897205	     -8.47610001	    -24.14142912	      4.45397438	     -7.42465292	      1.49633980	     -4.70821333	     -1.61878860	     11.62339858
      0.96050000	     -4.69075534	      1.30744404	     -8.20281224	     -0.03442879	      0.87333079	      0.30612771	     -9.46699936	      0.29897407	      2.04436530	    -29.60066022	     12.47400456	     10.87822240	     24.01831215	     32.62971595	     -2.10565264	     -8.31657006	    -24.89021873	      4.52031971	     -7.60444988	      1.54625469	     -4.63783267	     -1.86569193	     11.29676954
      0.96466667	     -4.67046449	      1.48291858	     -8.06946570	     -0.02796385	      0.87332301	      0.30541025	     -8.91457357	      0.03251548	      1.80002366	    -31.38277583	     11.48065742	     10.73648032	     24.13910186	     32.57489730	     -1.80554515	     -8.27329340	    -25.62441595	      4.64867901	     -7.64431314	      1.55147793	     -4.59933003	     -2.11959540	     11.16734893
      0.96883333	     -4.62059527	      1.69207333	     -7.88746375	     -0.02149855	      0.87339904	      0.30457469	     -8.34705028	     -0.29420417	      1.43630829	    -33.22513578	     10.42992992	     10.68185965	     24.31273498	     32.45766137	     -1.42203113	     -8.14388403	    -26.27434775	      4.77023200	     -7.78311812	      1.55121837	     -4.59694267	     -2.41225740	     10.89616348
      0.97300000	     -4.49108486	      1.88076983	     -7.68963620	     -0.01502348	      0.87365318	      0.30374111	     -7.85667397	     -0.61020420	      1.06895571	    -35.05108157	      9.25069142	     10.56204879	     24.37106969	     32.23593464	     -1.05000372	     -8.03996684	    -26.90666697	      5.03161627	     -7.83187446	      1.55611147	     -4.69686500	     -2.71138541	     10.73671159
      0.97716667	     -4.43982521	      2.12956908	     -7.49033931	     -0.00866750	      0.87381561	      0.30281410	     -7.18350676	     -1.00429705	      0.67777731	    -37.02266269	      8.13164280	     10.53757742	     24.71194860	     32.05885414	     -0.58838748	     -7.82066345	    -27.41661216	      5.15307157	     -8.10971036	      1.53532937	     -4.71648195	     -3.04832680	     10.28325130
      0.98133333	     -4.26635488	      2.40268007	     -7.29202837	     -0.00226290	      0.87423776	      0.30190709	     -6.63532769	     -1.45549852	      0.25959844	    -38.95460569	      6.82985868	     10.37416859	     26.78108179	     31.70387740	     -0.10155961	     -7.70466573	    -27.84512607	      5.33377581	     -8.25556884	      1.32726284	     -4.88717306	     -3.42402176	      9.95701824
      0.98550000	     -4.18778636	      2.61785414	     -7.07769475	      0.00401689	      0.87451273	      0.30102877	     -5.94308101	     -1.81877571	     -0.12204403	    -40.93983201	      5.54023122	     10.14614969	     26.79029285	     31.47320465	      0.30097516	     -7.58881499	    -28.32895228	      5.63742329	     -8.22069412	      1.32773110	     -4.94094316	     -3.72625417	      9.74690521
      0.98966667	     -4.04194650	      2.85443262	     -6.87068195	      0.01028337	      0.87495732	      0.30014112	     -5.30085407	     -2.23019888	     -0.50598169	    -42.91306828	      4.18199432	      9.92168560	     26.77156009	     31.11389970	      0.74243973	     -7.46613916	    -28.69985211	      5.98457996	     -8.20958841	      1.33020721	     -5.08935132	     -4.05250959	      9.51904654
      0.99383333	     -3.89807825	      3.11892307	     -6.65318603	      0.01647397	      0.87542024	      0.29923530	     -4.61779909	     -2.68321040	     -0.91075483	    -44.91141775	      2.83691049	      9.61634078	     26.71849737	     30.73707986	      1.21916622	     -7.34819340	    -29.01152021	      6.22185753	     -8.30906777	      1.31938947	     -5.24759308	     -4.42445222	      9.13520717
      0.99800000	     -3.73486466	      3.36471600	     -6.44292955	      0.02263236	      0.87596987	      0.29834899	     -3.94163998	     -3.12739113	     -1.30474656	    -46.87778372	      1.44416008	      9.33529050	     26.64320542	     30.29630523	      1.67562169	     -7.22937386	    -29.24969950	      6.60593295	     -8.28610323	      1.31876361	     -5.43228531	     -4.75476573	      8.88212328
      1.00216667	     -3.56959876	      3.62471338	     -6.22330916	      0.02870210	      0.87653921	      0.29746438	     -3.24202123	     -3.59048864	     -1.70195709	    -48.84014645	      0.07591238	      8.92687839	     26.47708041	     29.84362638	      2.14865199	     -7.11984954	    -29.45366397	      6.87117791	     -8.35161426	      1.30543871	     -5.64163773	     -5.12209668	      8.49187819
